<?xml version="1.0" encoding="utf-8"?>
<!-- Generator: Adobe Illustrator 18.1.1, SVG Export Plug-In . SVG Version: 6.00 Build 0)  -->
<!DOCTYPE svg PUBLIC "-//W3C//DTD SVG 1.1//EN" "http://www.w3.org/Graphics/SVG/1.1/DTD/svg11.dtd">
<svg version="1.1" id="Слой_1" xmlns="http://www.w3.org/2000/svg" xmlns:xlink="http://www.w3.org/1999/xlink" x="0px" y="0px"
	 viewBox="0 0 24 24" enable-background="new 0 0 24 24" xml:space="preserve">
<path fill="#7A99B1" d="M20,10h-6V4c0-0.552-0.448-1-1-1h-2c-0.552,0-1,0.448-1,1v6H4c-0.552,0-1,0.448-1,1v2c0,0.552,0.448,1,1,1h6
	v6c0,0.552,0.448,1,1,1h2c0.552,0,1-0.448,1-1v-6h6c0.552,0,1-0.448,1-1v-2C21,10.448,20.552,10,20,10z"/>
</svg>
