<?xml version="1.0" encoding="utf-8"?>
<!-- Generator: Adobe Illustrator 18.1.1, SVG Export Plug-In . SVG Version: 6.00 Build 0)  -->
<!DOCTYPE svg PUBLIC "-//W3C//DTD SVG 1.1//EN" "http://www.w3.org/Graphics/SVG/1.1/DTD/svg11.dtd">
<svg version="1.1" id="Слой_1" xmlns="http://www.w3.org/2000/svg" xmlns:xlink="http://www.w3.org/1999/xlink" x="0px" y="0px"
	 viewBox="0 0 22 22" enable-background="new 0 0 22 22" xml:space="preserve">
<path opacity="0.5" fill="#183457" d="M11,6c1.1,0,2-0.9,2-2c0-0.38-0.1-0.73-0.29-1.03L11,0L9.29,2.97C9.1,3.27,9,3.62,9,4
	C9,5.1,9.9,6,11,6z M20,20v-4c0-1.1-0.9-2-2-2h-1v-3c0-1.1-0.9-2-2-2h-3V7h-2v2H7c-1.1,0-2,0.9-2,2v3H4c-1.1,0-2,0.9-2,2v4H0v2h22
	v-2H20z"/>
</svg>
