<?xml version="1.0" encoding="utf-8"?>
<!-- Generator: Adobe Illustrator 18.1.1, SVG Export Plug-In . SVG Version: 6.00 Build 0)  -->
<!DOCTYPE svg PUBLIC "-//W3C//DTD SVG 1.1//EN" "http://www.w3.org/Graphics/SVG/1.1/DTD/svg11.dtd">
<svg version="1.1" id="Слой_1" xmlns="http://www.w3.org/2000/svg" xmlns:xlink="http://www.w3.org/1999/xlink" x="0px" y="0px"
	 viewBox="0 0 20.74 20.975" enable-background="new 0 0 20.74 20.975" xml:space="preserve">
<g>
	<path opacity="0.5" fill="#183457" d="M19.908,15.487l-5.846-1.35c-0.578-0.133-1.154,0.227-1.287,0.804l-0.191,0.829
		c-0.063,0.273-0.097,0.546-0.104,0.816L4.174,8.282c0.27-0.007,0.543-0.041,0.816-0.104l0.677-0.156
		c0.578-0.133,0.938-0.71,0.804-1.287l-1.35-5.846c-0.133-0.578-0.71-0.938-1.287-0.804L3.157,0.392
		c-2.04,0.471-3.344,2.583-3.11,4.583H0l0.091,0.194c0.007,0.036,0.005-0.004,0.014,0.033c0.016,0.068,0.047,0.09,0.066,0.157
		l0.986,3.722l0.119,0.025C1.322,9.193,1.367,9.277,1.441,9.35l9.975,9.972c0.127,0.127,0.282,0.196,0.445,0.24l-0.101,0.102
		l0.363,0.363l3.29,0.553c0.076,0.022,0.145,0.058,0.223,0.076c0.28,0.065,0.56,0.097,0.837,0.103l1.287,0.216l-0.239-0.349
		c1.443-0.357,2.643-1.476,3-3.023l0.192-0.829C20.845,16.197,20.485,15.62,19.908,15.487z"/>
	<linearGradient id="SVGID_1_" gradientUnits="userSpaceOnUse" x1="13.0492" y1="9.2973" x2="13.0492" y2="7.548806e-011">
		<stop  offset="0" style="stop-color:#010101"/>
		<stop  offset="0.2551" style="stop-color:#183457"/>
	</linearGradient>
	<path opacity="0.5" fill="#183457" stroke="url(#SVGID_1_)" stroke-miterlimit="10" d="M17.497,8.794l-0.037-1.19
		c-1.426,0.051-2.767-0.486-3.776-1.495c-0.9-0.9-1.417-2.065-1.486-3.319h1.263l-2.084-2.084L9.293,2.791h1.715
		c0.071,1.571,0.708,3.034,1.834,4.16C14.086,8.195,15.743,8.849,17.497,8.794z"/>
</g>
</svg>
