<?xml version="1.0" encoding="utf-8"?>
<!-- Generator: Adobe Illustrator 18.1.1, SVG Export Plug-In . SVG Version: 6.00 Build 0)  -->
<!DOCTYPE svg PUBLIC "-//W3C//DTD SVG 1.1//EN" "http://www.w3.org/Graphics/SVG/1.1/DTD/svg11.dtd">
<svg version="1.1" id="Слой_1" xmlns="http://www.w3.org/2000/svg" xmlns:xlink="http://www.w3.org/1999/xlink" x="0px" y="0px"
	 viewBox="0 0 20.74 20.919" enable-background="new 0 0 20.74 20.919" xml:space="preserve">
<g>
	<path opacity="0.5" fill="#183457" d="M19.908,15.43l-5.846-1.35c-0.578-0.133-1.154,0.227-1.287,0.804l-0.191,0.829
		c-0.063,0.273-0.097,0.546-0.104,0.816L4.174,8.226c0.27-0.007,0.543-0.041,0.816-0.104l0.677-0.156
		c0.578-0.133,0.938-0.71,0.804-1.287l-1.35-5.846c-0.133-0.578-0.71-0.938-1.287-0.804L3.157,0.376C1.117,0.847-0.187,3,0.047,5H0
		l0.091,0.152c0.007,0.037,0.005-0.023,0.014,0.013c0.017,0.072,0.049,0.087,0.069,0.157l0.983,3.707l0.119,0.022
		c0.046,0.088,0.092,0.17,0.165,0.243l9.975,9.972c0.127,0.127,0.282,0.195,0.445,0.239l-0.101,0.102l0.363,0.363l3.29,0.553
		c0.076,0.022,0.145,0.058,0.223,0.076c0.281,0.065,0.561,0.097,0.837,0.103l1.286,0.216L17.52,20.57
		c1.443-0.357,2.643-1.476,3-3.023l0.192-0.829C20.845,16.14,20.485,15.564,19.908,15.43z"/>
	<g>
		
			<rect x="10.237" y="3.71" transform="matrix(0.7071 0.7071 -0.7071 0.7071 7.6747 -9.109)" fill="#E32A26" width="9.192" height="2"/>
	</g>
	<g>
		
			<rect x="13.833" y="0.113" transform="matrix(0.7071 0.7071 -0.7071 0.7071 7.6747 -9.109)" fill="#E32A26" width="2" height="9.192"/>
	</g>
</g>
</svg>
