<?xml version="1.0" encoding="utf-8"?>
<!-- Generator: Adobe Illustrator 18.1.1, SVG Export Plug-In . SVG Version: 6.00 Build 0)  -->
<!DOCTYPE svg PUBLIC "-//W3C//DTD SVG 1.1//EN" "http://www.w3.org/Graphics/SVG/1.1/DTD/svg11.dtd">
<svg version="1.1" id="Слой_1" xmlns="http://www.w3.org/2000/svg" xmlns:xlink="http://www.w3.org/1999/xlink" x="0px" y="0px"
	 viewBox="0 0 21.286 22.099" enable-background="new 0 0 21.286 22.099" xml:space="preserve">
<g>
	<path opacity="0.5" fill="#183457" d="M19.908,16.611l-5.846-1.35c-0.578-0.133-1.154,0.227-1.287,0.804l-0.191,0.829
		c-0.063,0.273-0.097,0.546-0.104,0.816L4.174,9.406c0.27-0.007,0.543-0.041,0.816-0.104l0.677-0.156
		c0.578-0.133,0.938-0.71,0.804-1.287l-1.35-5.846c-0.133-0.578-0.71-0.938-1.287-0.804L3.157,1.516
		c-2.04,0.471-3.344,2.583-3.11,4.583H0l0.091,0.194c0.007,0.036,0.005-0.004,0.014,0.033c0.016,0.068,0.047,0.09,0.066,0.157
		l0.986,3.722l0.119,0.025c0.046,0.088,0.092,0.171,0.165,0.245l9.975,9.972c0.127,0.127,0.282,0.196,0.445,0.24l-0.101,0.102
		l0.363,0.363l3.29,0.553c0.076,0.022,0.145,0.058,0.223,0.076c0.28,0.065,0.56,0.097,0.837,0.103l1.287,0.216l-0.239-0.349
		c1.443-0.357,2.643-1.476,3-3.023l0.192-0.829C20.845,17.321,20.485,16.744,19.908,16.611z"/>
	<g>
		<path fill="#4AAD4B" d="M17.038,10.922l-1.999-0.063c0.04-1.247-0.425-2.42-1.308-3.303c-0.882-0.883-2.051-1.337-3.304-1.309
			l-0.063-1.999c1.801-0.065,3.504,0.616,4.781,1.893C16.422,7.419,17.095,9.116,17.038,10.922z"/>
	</g>
	<g>
		<path fill="#4AAD4B" d="M21.28,10.921l-1.999-0.063c0.075-2.396-0.816-4.648-2.511-6.343s-3.948-2.597-6.343-2.511l-0.063-1.999
			c2.947-0.091,5.73,1.006,7.82,3.096C20.273,5.191,21.373,7.968,21.28,10.921z"/>
	</g>
</g>
</svg>
