<?xml version="1.0" encoding="utf-8"?>
<!-- Generator: Adobe Illustrator 18.1.1, SVG Export Plug-In . SVG Version: 6.00 Build 0)  -->
<!DOCTYPE svg PUBLIC "-//W3C//DTD SVG 1.1//EN" "http://www.w3.org/Graphics/SVG/1.1/DTD/svg11.dtd">
<svg version="1.1" id="Слой_1" xmlns="http://www.w3.org/2000/svg" xmlns:xlink="http://www.w3.org/1999/xlink" x="0px" y="0px"
	 viewBox="0 0 24.702 22" enable-background="new 0 0 24.702 22" xml:space="preserve">
<g>
	<g opacity="0.5">
		<path fill="#183457" d="M12.426,3.839c4.48,0,8.125,3.645,8.125,8.125s-3.645,8.125-8.125,8.125s-8.125-3.645-8.125-8.125
			S7.946,3.839,12.426,3.839 M12.426,1.927C6.883,1.927,2.39,6.421,2.39,11.964C2.39,17.507,6.883,22,12.426,22
			s10.036-4.493,10.036-10.036C22.463,6.421,17.969,1.927,12.426,1.927L12.426,1.927z"/>
	</g>
	<g opacity="0.5">
		
			<rect x="20.168" y="-0.417" transform="matrix(0.6844 -0.7291 0.7291 0.6844 4.2541 16.5349)" fill="#183457" width="2.119" height="7.541"/>
	</g>
	<g opacity="0.5">
		
			<rect x="2.415" y="-0.417" transform="matrix(-0.6844 -0.7291 0.7291 -0.6844 3.4073 8.1812)" fill="#183457" width="2.119" height="7.541"/>
	</g>
	<g>
		<polygon fill="#F29323" points="15.772,16.941 10.713,11.882 10.713,6 12.713,6 12.713,11 17.124,15.589 		"/>
	</g>
</g>
</svg>
