<?xml version="1.0" encoding="utf-8"?>
<!-- Generator: Adobe Illustrator 18.1.1, SVG Export Plug-In . SVG Version: 6.00 Build 0)  -->
<!DOCTYPE svg PUBLIC "-//W3C//DTD SVG 1.1//EN" "http://www.w3.org/Graphics/SVG/1.1/DTD/svg11.dtd">
<svg version="1.1" id="Слой_1" xmlns="http://www.w3.org/2000/svg" xmlns:xlink="http://www.w3.org/1999/xlink" x="0px" y="0px"
	 viewBox="0 0 24.702 22" enable-background="new 0 0 24.702 22" xml:space="preserve">
<g>
	<g opacity="0.5">
		<path fill="#183457" d="M12.351,3.839c4.48,0,8.125,3.645,8.125,8.125s-3.645,8.125-8.125,8.125s-8.125-3.645-8.125-8.125
			S7.871,3.839,12.351,3.839 M12.351,1.927c-5.543,0-10.036,4.493-10.036,10.036C2.315,17.507,6.808,22,12.351,22
			c5.543,0,10.036-4.493,10.036-10.036C22.388,6.42,17.894,1.927,12.351,1.927L12.351,1.927z"/>
	</g>
	<g opacity="0.5">
		<g>
			
				<rect x="20.169" y="-0.418" transform="matrix(0.6844 -0.7291 0.7291 0.6844 4.2542 16.5349)" fill="#183457" width="2.119" height="7.541"/>
		</g>
		<g>
			
				<rect x="2.415" y="-0.418" transform="matrix(-0.6844 -0.7291 0.7291 -0.6844 3.4073 8.1811)" fill="#183457" width="2.119" height="7.541"/>
		</g>
	</g>
	<g>
		<g>
			
				<rect x="7.282" y="11.247" transform="matrix(0.7071 0.7071 -0.7071 0.7071 12.2461 -5.1594)" fill="#E32A26" width="10.138" height="1.912"/>
		</g>
		<g>
			
				<rect x="11.395" y="7.133" transform="matrix(0.7071 0.7071 -0.7071 0.7071 12.2461 -5.1594)" fill="#E32A26" width="1.912" height="10.138"/>
		</g>
	</g>
</g>
</svg>
