<?xml version="1.0" encoding="utf-8"?>
<!-- Generator: Adobe Illustrator 18.1.1, SVG Export Plug-In . SVG Version: 6.00 Build 0)  -->
<!DOCTYPE svg PUBLIC "-//W3C//DTD SVG 1.1//EN" "http://www.w3.org/Graphics/SVG/1.1/DTD/svg11.dtd">
<svg version="1.1" id="Слой_1" xmlns="http://www.w3.org/2000/svg" xmlns:xlink="http://www.w3.org/1999/xlink" x="0px" y="0px"
	 viewBox="0 0 16 15.998" enable-background="new 0 0 16 15.998" xml:space="preserve">
<g>
	<g>
		<linearGradient id="SVGID_1_" gradientUnits="userSpaceOnUse" x1="0" y1="7.9992" x2="16" y2="7.9992">
			<stop  offset="0" style="stop-color:#34A5DD"/>
			<stop  offset="1" style="stop-color:#7CBAE6"/>
		</linearGradient>
		<path fill="url(#SVGID_1_)" d="M16,7v2h-2.091c-0.149,0.885-0.501,1.699-0.994,2.407l2.097,1.823l-1.443,1.783l-2.312-2.01
			C10.583,13.439,9.825,13.759,9,13.898v2.1H7v-2.091c-0.827-0.139-1.586-0.462-2.26-0.903l-2.308,2.008l-1.443-1.783l2.1-1.827
			C2.599,10.695,2.25,9.884,2.1,8.999H0v-2h2.091C2.24,6.114,2.592,5.3,3.085,4.592L0.988,2.769l1.443-1.783l2.312,2.01
			C5.417,2.559,6.175,2.24,7,2.1V0h2v2.1c0.824,0.139,1.583,0.459,2.256,0.896l2.312-2.01l1.443,1.783l-2.097,1.823
			c0.493,0.708,0.845,1.521,0.994,2.407L16,7L16,7z M8,5c-1.656,0-3,1.343-3,3s1.343,3,3,3s3-1.343,3-3S9.657,5,8,5z"/>
	</g>
</g>
</svg>
